<?xml version="1.0" encoding="iso-8859-1"?>
<!-- Generator: Adobe Illustrator 17.1.0, SVG Export Plug-In . SVG Version: 6.00 Build 0)  -->
<!DOCTYPE svg PUBLIC "-//W3C//DTD SVG 1.1//EN" "http://www.w3.org/Graphics/SVG/1.1/DTD/svg11.dtd">
<svg version="1.1" id="Capa_1" xmlns="http://www.w3.org/2000/svg" xmlns:xlink="http://www.w3.org/1999/xlink" x="0px" y="0px"
	 viewBox="0 0 457.925 457.925" style="enable-background:new 0 0 457.925 457.925;" xml:space="preserve">
<path d="M446.812,219.608c-12.104-4.277-37.291-13.176-75.132-51.017c-1.385-1.386-2.955-2.955-5.373-2.955
	c-1.634,0-3.183,0.784-4.146,2.1c-1.665,2.275-0.947,4.535-0.115,7.152c1.432,4.511,4.413,13.896-0.211,21.826
	c-3.01,5.162-8.858,9.151-17.406,11.915c-3.681-5.186-8.805-8.354-14.553-8.354c-6.731,0-12.604,4.346-16.308,11.188H158.077
	c-5.592-8.145-14.966-13.5-25.571-13.5c-6.359,0-12.275,1.927-17.2,5.225l-24.075-12.491c-3.147-1.633-8.195-2.864-11.741-2.864
	H7.886c-3.247,0-5.843,1.423-7.124,3.904s-0.936,5.423,0.946,8.068l19.893,27.98c0.36,0.506,0.36,1.85,0,2.355l-19.893,27.98
	c-1.882,2.646-2.227,5.587-0.946,8.068s3.876,3.904,7.124,3.904H79.49c3.546,0,8.594-1.231,11.741-2.864l24.075-12.491
	c4.925,3.297,10.841,5.225,17.2,5.225c10.604,0,19.979-5.355,25.571-13.5h155.491c3.704,6.841,9.576,11.188,16.308,11.188
	c5.749,0,10.872-3.168,14.553-8.355c8.548,2.764,14.396,6.753,17.406,11.915c4.625,7.931,1.644,17.316,0.211,21.826
	c-0.831,2.615-1.548,4.874,0.113,7.147c0.959,1.314,2.506,2.102,4.137,2.104c0.004,0,0.008,0,0.012,0
	c2.416,0,3.986-1.569,5.371-2.955c38.839-38.839,63.598-47.239,75.497-51.276c5.767-1.956,10.747-3.646,10.747-9.095
	C457.925,223.534,453.021,221.801,446.812,219.608z"/>
<g>
</g>
<g>
</g>
<g>
</g>
<g>
</g>
<g>
</g>
<g>
</g>
<g>
</g>
<g>
</g>
<g>
</g>
<g>
</g>
<g>
</g>
<g>
</g>
<g>
</g>
<g>
</g>
<g>
</g>
</svg>
