<svg width="163.88375549316405px" height="77.63000183105468px" xmlns="http://www.w3.org/2000/svg" viewBox="168.058122253418 36.18499908447266 163.88375549316405 77.63000183105468" style="background: rgb(253, 253, 253);" preserveAspectRatio="xMidYMid"><defs><linearGradient id="editing-outline-gradient" x1="-0.41354545764260087" x2="1.4135454576426008" y1="0.09326335692419985" y2="0.9067366430758002"><stop offset="0" stop-color="#85a2b6"></stop><stop offset="1" stop-color="#bbcedd"></stop></linearGradient><filter id="editing-outline" x="-100%" y="-100%" width="300%" height="300%"><feMorphology in="SourceGraphic" operator="dilate" radius="1" result="outline"></feMorphology><feComposite operator="out" in="outline" in2="SourceAlpha"></feComposite></filter></defs><g filter="url(#editing-outline)"><g transform="translate(197.55694995820522, 92.18500137329102)"><path d="M6.32-17.07L6.32-17.07L6.29-15.71L6.46-15.54L6.46-15.54Q8.87-17.68 11.56-17.68L11.56-17.68L11.56-17.68Q14.79-17.65 16.69-15.13L16.69-15.13L16.69-15.13Q18.60-12.61 18.63-8.94L18.63-8.94L18.63-8.94Q18.63-4.28 16.34-1.82L16.34-1.82L16.34-1.82Q14.04 0.65 9.93 0.65L9.93 0.65L9.93 0.65Q8.30 0.61 6.46-0.10L6.46-0.10L6.46 6.80L9.42 7.48L9.42 7.48Q9.52 8.13 9.25 8.67L9.25 8.67L9.25 8.67Q6.19 8.50 4.76 8.50L4.76 8.50L4.76 8.50Q3.43 8.50 0.61 8.67L0.61 8.67L0.61 8.67Q0.51 8.02 0.68 7.48L0.68 7.48L0.68 7.48Q2.31 7.14 3.06 6.80L3.06 6.80L3.06-14.96L0.27-15.23L0.27-15.23Q0.17-15.91 0.44-16.42L0.44-16.42L0.44-16.42Q1.90-16.59 5.13-17.34L5.13-17.34L5.13-17.34Q5.68-17.31 6.32-17.07ZM6.46-13.74L6.46-13.74L6.46-2.01L6.46-2.01Q8.06-0.92 9.86-0.92L9.86-0.92L9.86-0.92Q12.38-0.92 13.70-2.96L13.70-2.96L13.70-2.96Q15.03-5.00 15.03-8.74L15.03-8.74L15.03-8.74Q15.03-12.17 13.84-13.91L13.84-13.91L13.84-13.91Q12.65-15.64 10.54-15.64L10.54-15.64L10.54-15.64Q9.35-15.64 8.16-15.05L8.16-15.05L8.16-15.05Q6.97-14.45 6.46-13.74ZM21.18-8.50L21.18-8.50L21.18-8.50Q21.18-12.75 23.66-15.23L23.66-15.23L23.66-15.23Q26.15-17.71 29.75-17.68L29.75-17.68L29.75-17.68Q33.69-17.68 36.01-15.06L36.01-15.06L36.01-15.06Q38.32-12.44 38.32-8.50L38.32-8.50L38.32-8.50Q38.32-4.18 35.87-1.73L35.87-1.73L35.87-1.73Q33.42 0.71 29.75 0.68L29.75 0.68L29.75 0.68Q25.70 0.68 23.44-1.94L23.44-1.94L23.44-1.94Q21.18-4.56 21.18-8.50ZM34.65-8.02L34.65-8.02L34.65-8.02Q34.71-11.25 33.49-13.74L33.49-13.74L33.49-13.74Q32.27-16.22 29.68-16.22L29.68-16.22L29.68-16.22Q27.17-16.22 25.99-14.03L25.99-14.03L25.99-14.03Q24.82-11.83 24.85-8.26L24.85-8.26L24.85-8.26Q24.85-6.70 25.14-5.34L25.14-5.34L25.14-5.34Q25.43-3.98 26.04-2.96L26.04-2.96L26.04-2.96Q26.66-1.94 27.59-1.36L27.59-1.36L27.59-1.36Q28.53-0.78 29.82-0.78L29.82-0.78L29.82-0.78Q31.93-0.75 33.29-2.48L33.29-2.48L33.29-2.48Q34.65-4.22 34.65-8.02ZM46.00-25.33L46.00-25.33L46.00-1.70L48.62-1.02L48.62-1.02Q48.72-0.37 48.45 0.17L48.45 0.17L48.45 0.17Q45.39 0 44.30 0L44.30 0L44.30 0Q43.32 0 40.15 0.17L40.15 0.17L40.15 0.17Q40.05-0.48 40.22-1.02L40.22-1.02L40.22-1.02Q42.13-1.50 42.60-1.70L42.60-1.70L42.60-23.32L39.78-23.60L39.78-23.60Q39.68-24.28 39.95-24.79L39.95-24.79L39.95-24.79Q42.77-25.19 44.71-25.70L44.71-25.70L44.71-25.70Q45.29-25.67 46.00-25.33ZM53.45-4.08L53.45-4.08L53.45-4.08Q53.45-2.72 54.18-2.01L54.18-2.01L54.18-2.01Q54.91-1.29 56.17-1.29L56.17-1.29L56.17-1.29Q57.12-1.29 58.19-1.87L58.19-1.87L58.19-1.87Q59.26-2.45 59.81-3.23L59.81-3.23L59.81-7.82L59.81-7.82Q56.30-7.82 54.88-6.99L54.88-6.99L54.88-6.99Q53.45-6.15 53.45-4.08ZM63.14-10.78L63.14-10.78L63.14-1.67L63.14-1.67Q63.65-1.39 65.52-0.99L65.52-0.99L65.52-0.99Q65.62-0.34 65.35 0.20L65.35 0.20L65.35 0.20Q64.09 0.44 62.49 0.44L62.49 0.44L62.49 0.44Q61.37 0.44 60.55 0.24L60.55 0.24L60.08-1.53L59.94-1.53L59.94-1.53Q57.90 0.58 54.88 0.58L54.88 0.58L54.88 0.58Q52.70 0.58 51.37-0.56L51.37-0.56L51.37-0.56Q50.05-1.70 50.05-3.74L50.05-3.74L50.05-3.74Q50.08-9.35 59.81-9.18L59.81-9.18L59.84-12.17L59.84-12.17Q59.87-16.12 56.85-16.15L56.85-16.15L56.85-16.15Q55.05-16.15 53.65-15.64L53.65-15.64L53.21-12.04L53.21-12.04Q52.53-11.80 51.71-11.90L51.71-11.90L51.71-11.90Q51.00-14.48 51.03-16.32L51.03-16.32L51.03-16.32Q53.86-17.68 57.77-17.68L57.77-17.68L57.77-17.68Q60.69-17.71 61.91-16.18L61.91-16.18L61.91-16.18Q63.14-14.65 63.14-10.78ZM72.73-11.46L72.73-11.46L72.73-1.70L76.02-1.02L76.02-1.02Q76.13-0.37 75.85 0.17L75.85 0.17L75.85 0.17Q72.79 0 71.03 0L71.03 0L71.03 0Q69.67 0 66.88 0.17L66.88 0.17L66.88 0.17Q66.78-0.48 66.95-1.02L66.95-1.02L66.95-1.02Q68.85-1.43 69.33-1.70L69.33-1.70L69.33-14.96L66.50-15.23L66.50-15.23Q66.40-15.91 66.67-16.42L66.67-16.42L66.67-16.42Q69.50-16.83 71.43-17.34L71.43-17.34L71.43-17.34Q71.81-17.34 72.56-16.97L72.56-16.97L72.56-13.87L72.59-13.84L72.59-13.84Q75.11-17.58 77.76-17.58L77.76-17.58L77.76-17.58Q79.12-17.61 80.00-17.07L80.00-17.07L80.00-17.07Q80.10-14.55 79.32-11.97L79.32-11.97L79.32-11.97Q78.47-11.87 77.79-12.10L77.79-12.10L77.32-15.50L77.32-15.50Q74.49-15.50 72.73-11.46ZM82.82-22.75L82.82-22.75L82.82-22.75Q82.82-23.39 83.61-24.07L83.61-24.07L83.61-24.07Q84.39-24.75 85.24-24.75L85.24-24.75L85.24-24.75Q86.09-24.75 86.70-23.99L86.70-23.99L86.70-23.99Q87.31-23.22 87.31-22.44L87.31-22.44L87.31-22.44Q87.31-21.76 86.55-21.10L86.55-21.10L86.55-21.10Q85.78-20.43 84.90-20.43L84.90-20.43L84.90-20.43Q84.12-20.43 83.47-21.20L83.47-21.20L83.47-21.20Q82.82-21.96 82.82-22.75ZM87.52-16.97L87.52-16.97L87.52-1.70L89.79-1.02L89.79-1.02Q89.90-0.37 89.62 0.17L89.62 0.17L89.62 0.17Q86.56 0 85.82 0L85.82 0L85.82 0Q84.80 0 81.67 0.17L81.67 0.17L81.67 0.17Q81.57-0.48 81.74-1.02L81.74-1.02L81.74-1.02Q83.64-1.46 84.12-1.70L84.12-1.70L84.12-14.96L81.29-15.23L81.29-15.23Q81.19-15.91 81.46-16.42L81.46-16.42L81.46-16.42Q84.29-16.83 86.22-17.34L86.22-17.34L86.22-17.34Q86.80-17.31 87.52-16.97ZM93.81-5.10L93.81-5.10L94.15-1.50L94.15-1.50Q95.27-0.88 97.24-0.88L97.24-0.88L97.24-0.88Q98.74-0.88 99.77-1.53L99.77-1.53L99.77-1.53Q100.81-2.18 100.81-3.47L100.81-3.47L100.81-3.47Q100.81-4.62 99.79-5.49L99.79-5.49L99.79-5.49Q98.77-6.36 96.29-7.51L96.29-7.51L96.29-7.51Q94.15-8.50 93.14-9.76L93.14-9.76L93.14-9.76Q92.14-11.02 92.14-12.99L92.14-12.99L92.14-12.99Q92.14-15.30 93.81-16.46L93.81-16.46L93.81-16.46Q95.47-17.61 98.16-17.61L98.16-17.61L98.16-17.61Q100.78-17.61 103.12-16.66L103.12-16.66L103.12-16.66Q103.12-16.52 103.14-16.29L103.14-16.29L103.14-16.29Q103.16-16.05 103.16-15.91L103.16-15.91L103.16-15.91Q103.16-13.91 102.51-12.00L102.51-12.00L102.51-12.00Q102.17-11.93 102-11.93L102-11.93L102-11.93Q101.49-11.93 100.98-12.14L100.98-12.14L100.44-15.81L100.44-15.81Q99.38-16.12 98.26-16.12L98.26-16.12L98.26-16.12Q96.87-16.12 95.93-15.54L95.93-15.54L95.93-15.54Q95.00-14.96 94.96-13.67L94.96-13.67L94.96-13.67Q94.96-12.51 95.81-11.70L95.81-11.70L95.81-11.70Q96.66-10.88 99.01-9.76L99.01-9.76L99.01-9.76Q101.76-8.43 102.85-7.24L102.85-7.24L102.85-7.24Q103.94-6.05 103.94-4.25L103.94-4.25L103.94-4.25Q103.94-1.94 102.15-0.63L102.15-0.63L102.15-0.63Q100.37 0.68 97.48 0.68L97.48 0.68L97.48 0.68Q93.91 0.75 91.73-0.68L91.73-0.68L91.73-1.26L91.73-1.26Q91.70-3.40 92.34-5.24L92.34-5.24L92.34-5.24Q92.55-5.27 92.68-5.27L92.68-5.27L92.68-5.27Q93.30-5.27 93.81-5.10Z" fill="url(#editing-outline-gradient)"></path></g></g><style>text {
  font-size: 64px;
  font-family: Arial Black;
  dominant-baseline: central;
  text-anchor: middle;
}</style></svg>