<?xml version="1.0" standalone="no"?>
<!DOCTYPE svg PUBLIC "-//W3C//DTD SVG 20010904//EN"
 "http://www.w3.org/TR/2001/REC-SVG-20010904/DTD/svg10.dtd">
<svg version="1.0" xmlns="http://www.w3.org/2000/svg"
 width="51.000000pt" height="63.000000pt" viewBox="0 0 51.000000 63.000000"
 preserveAspectRatio="xMidYMid meet">
<metadata>
Created by potrace 1.10, written by Peter Selinger 2001-2011
</metadata>
<g transform="translate(0.000000,63.000000) scale(0.100000,-0.100000)"
fill="#000000" stroke="none">
<path d="M179 616 c-52 -18 -77 -39 -114 -91 -29 -40 -34 -57 -40 -130 -8 -94
2 -140 39 -174 13 -13 36 -49 50 -81 47 -103 115 -142 186 -105 34 17 113 123
106 142 -3 7 9 22 25 34 43 31 71 99 63 158 -12 95 -34 151 -80 198 -47 49
-167 74 -235 49z m172 -28 c49 -20 78 -52 103 -113 17 -41 21 -69 6 -45 -5 8
-13 11 -17 6 -4 -4 0 -14 11 -21 29 -22 33 -93 7 -143 -12 -23 -25 -42 -29
-42 -12 0 -92 -81 -92 -93 0 -7 11 2 24 18 43 54 37 20 -8 -42 -64 -87 -116
-102 -174 -49 -27 24 -77 116 -64 116 5 0 14 -12 21 -26 6 -15 14 -24 17 -22
11 11 -21 60 -53 79 -69 43 -93 148 -46 201 17 20 17 21 1 15 -23 -8 -23 7 1
59 22 49 39 62 48 37 14 -39 38 -60 58 -52 19 7 19 8 -1 8 -27 1 -48 26 -40
47 4 10 12 14 24 9 13 -5 14 -4 5 6 -10 9 -15 10 -27 0 -10 -9 -16 -9 -21 -1
-4 6 -5 12 -4 14 93 68 151 76 250 34z"/>
<path d="M255 590 c3 -5 16 -10 28 -9 21 0 21 1 2 9 -28 12 -37 12 -30 0z"/>
<path d="M300 570 c-12 -8 -10 -10 8 -10 13 0 20 4 17 10 -7 12 -6 12 -25 0z"/>
<path d="M200 560 c-8 -5 -10 -10 -5 -10 6 0 17 5 25 10 8 5 11 10 5 10 -5 0
-17 -5 -25 -10z"/>
<path d="M154 507 c-4 -7 -4 -9 1 -5 4 4 14 3 22 -3 8 -7 13 -8 13 -1 0 15
-28 23 -36 9z"/>
<path d="M350 489 c0 -5 5 -7 10 -4 6 3 10 8 10 11 0 2 -4 4 -10 4 -5 0 -10
-5 -10 -11z"/>
<path d="M250 480 c0 -5 5 -10 10 -10 6 0 10 5 10 10 0 6 -4 10 -10 10 -5 0
-10 -4 -10 -10z"/>
<path d="M425 480 c-3 -5 -1 -10 4 -10 6 0 11 5 11 10 0 6 -2 10 -4 10 -3 0
-8 -4 -11 -10z"/>
<path d="M400 468 c0 -9 5 -20 11 -23 17 -11 18 -2 3 19 -12 17 -14 17 -14 4z"/>
<path d="M316 458 c3 -5 10 -6 15 -3 13 9 11 12 -6 12 -8 0 -12 -4 -9 -9z"/>
<path d="M363 450 c2 -11 10 -26 17 -33 11 -9 11 -7 0 7 -14 18 -13 19 3 13
22 -8 22 -5 -3 16 -19 16 -20 16 -17 -3z"/>
<path d="M165 450 c-3 -5 -1 -10 4 -10 6 0 11 5 11 10 0 6 -2 10 -4 10 -3 0
-8 -4 -11 -10z"/>
<path d="M122 434 c-7 -8 -8 -14 -3 -14 10 0 25 19 20 25 -2 1 -10 -3 -17 -11z"/>
<path d="M218 433 c7 -3 16 -2 19 1 4 3 -2 6 -13 5 -11 0 -14 -3 -6 -6z"/>
<path d="M250 429 c0 -5 5 -7 10 -4 6 3 10 8 10 11 0 2 -4 4 -10 4 -5 0 -10
-5 -10 -11z"/>
<path d="M301 421 c-20 -20 -55 -81 -47 -81 2 0 14 16 26 35 12 19 32 38 46
41 13 3 21 10 18 15 -8 14 -22 11 -43 -10z"/>
<path d="M190 424 c0 -4 12 -18 26 -31 28 -26 46 -24 24 2 -16 19 -50 39 -50
29z"/>
<path d="M100 397 c0 -8 -7 -20 -15 -27 -11 -9 -15 -27 -13 -54 3 -36 7 -43
39 -58 20 -9 60 -20 88 -24 l51 -7 -19 43 c-18 40 -51 82 -82 105 -8 6 -22 16
-32 24 -15 11 -17 11 -17 -2z m9 -69 c-9 -17 -8 -18 10 -6 15 9 17 16 10 30
-9 17 -8 18 9 7 12 -7 18 -19 14 -28 -4 -10 -1 -13 11 -8 10 4 16 2 14 -6 -1
-7 5 -10 13 -9 8 2 12 0 8 -3 -4 -4 -2 -17 4 -29 6 -11 7 -18 3 -14 -5 4 -14
3 -20 -2 -9 -7 -16 -6 -24 4 -7 8 -19 12 -27 9 -8 -3 -14 0 -14 7 0 6 -4 9 -9
6 -5 -3 -12 6 -16 21 -4 16 -2 29 4 31 5 2 7 11 4 20 -4 14 -3 14 5 3 7 -10 7
-21 1 -33z"/>
<path d="M127 313 c-9 -15 17 -23 34 -11 11 8 11 9 -3 5 -9 -3 -18 -1 -21 6
-2 8 -5 8 -10 0z"/>
<path d="M325 390 c-3 -5 -1 -10 4 -10 6 0 11 5 11 10 0 6 -2 10 -4 10 -3 0
-8 -4 -11 -10z"/>
<path d="M346 354 c-47 -47 -93 -121 -81 -132 3 -4 9 -2 13 3 4 6 28 10 54 11
50 0 92 27 108 68 6 16 -19 68 -44 94 -2 1 -25 -18 -50 -44z m79 -42 c-4 -4
-13 2 -21 12 -7 11 -17 16 -21 11 -5 -4 -2 -10 5 -12 6 -3 10 -9 6 -14 -8 -14
-24 -11 -24 6 0 8 -4 15 -10 15 -13 0 -13 -13 0 -26 13 -13 2 -46 -11 -38 -6
3 -17 0 -25 -7 -21 -17 -30 -2 -11 19 10 10 17 22 17 27 0 5 12 22 27 37 l27
28 24 -25 c13 -15 21 -29 17 -33z m-31 -37 c-26 -18 -29 -11 -7 14 10 12 19
17 21 11 2 -6 -4 -17 -14 -25z"/>
<path d="M336 293 c-6 -14 -5 -15 5 -6 7 7 10 15 7 18 -3 3 -9 -2 -12 -12z"/>
<path d="M446 373 c-6 -14 -5 -15 5 -6 7 7 10 15 7 18 -3 3 -9 -2 -12 -12z"/>
<path d="M286 353 c-6 -14 -5 -15 5 -6 7 7 10 15 7 18 -3 3 -9 -2 -12 -12z"/>
<path d="M230 325 c27 -29 30 -30 30 -12 0 6 -12 18 -27 24 l-26 13 23 -25z"/>
<path d="M224 201 c11 -4 23 -16 27 -27 7 -18 8 -18 8 2 1 21 -17 35 -42 33
-7 0 -3 -4 7 -8z"/>
<path d="M336 202 c-3 -5 1 -9 9 -9 8 0 12 4 9 9 -3 4 -7 8 -9 8 -2 0 -6 -4
-9 -8z"/>
<path d="M290 186 c0 -2 7 -7 16 -10 8 -3 12 -2 9 4 -6 10 -25 14 -25 6z"/>
<path d="M170 173 c0 -6 8 -17 18 -24 16 -13 16 -13 2 6 -8 11 -16 22 -17 24
-2 2 -3 0 -3 -6z"/>
<path d="M204 144 c0 -30 2 -33 9 -16 5 12 5 26 0 36 -7 12 -9 7 -9 -20z"/>
<path d="M283 162 c10 -10 14 -22 10 -27 -5 -4 -2 -5 5 -1 11 6 10 12 -4 27
-9 10 -19 19 -22 19 -3 0 2 -8 11 -18z"/>
<path d="M165 119 c-4 -6 -4 -13 -1 -16 3 -4 6 -1 6 6 0 7 5 9 12 5 7 -4 8 -3
4 4 -9 15 -13 15 -21 1z"/>
<path d="M220 98 c0 -8 13 -13 35 -13 43 0 40 19 -3 23 -21 2 -32 -1 -32 -10z"/>
<path d="M270 59 c0 -5 5 -7 10 -4 6 3 10 8 10 11 0 2 -4 4 -10 4 -5 0 -10 -5
-10 -11z"/>
<path d="M430 586 c0 -2 8 -10 18 -17 15 -13 16 -12 3 4 -13 16 -21 21 -21 13z"/>
<path d="M70 141 c0 -6 4 -12 8 -15 5 -3 9 1 9 9 0 8 -4 15 -9 15 -4 0 -8 -4
-8 -9z"/>
<path d="M167 19 c7 -7 15 -10 18 -7 3 3 -2 9 -12 12 -14 6 -15 5 -6 -5z"/>
</g>
</svg>
